<?xml version="1.0" standalone="no"?>
<!DOCTYPE svg PUBLIC "-//W3C//DTD SVG 20010904//EN"
 "http://www.w3.org/TR/2001/REC-SVG-20010904/DTD/svg10.dtd">
<svg version="1.0" xmlns="http://www.w3.org/2000/svg"
 width="512.000000pt" height="512.000000pt" viewBox="0 0 512.000000 512.000000"
 preserveAspectRatio="xMidYMid meet">

<g transform="translate(0.000000,512.000000) scale(0.100000,-0.100000)"
fill="#000000" stroke="none">
<path d="M2350 4993 c-542 -40 -1037 -372 -1289 -863 -102 -200 -151 -370
-173 -605 -18 -197 11 -429 77 -630 90 -271 325 -610 490 -705 28 -16 99 -68
159 -117 83 -67 115 -100 135 -139 15 -28 49 -82 77 -120 45 -61 136 -208 248
-403 40 -69 38 -81 -16 -81 -48 0 -276 -49 -375 -81 -323 -104 -503 -257 -503
-429 1 -189 225 -360 597 -454 602 -153 1382 -89 1777 146 179 106 262 260
213 395 -64 172 -340 326 -715 398 -70 13 -144 27 -165 30 l-38 6 37 67 c76
137 212 360 253 416 69 93 168 192 291 290 330 266 530 573 609 938 94 435 12
868 -236 1243 -85 128 -290 335 -418 422 -309 208 -665 304 -1035 276z m300
-448 c106 -16 278 -64 332 -92 135 -69 321 -224 417 -347 116 -150 197 -341
226 -533 37 -247 1 -466 -117 -703 -156 -313 -449 -533 -813 -612 -78 -17
-352 -17 -430 0 -472 102 -826 451 -920 907 -50 242 -19 500 85 723 218 465
719 735 1220 657z m-371 -3518 c122 -241 134 -256 199 -257 71 0 82 14 205
257 l115 228 65 -2 c184 -6 517 -106 664 -198 121 -77 173 -147 173 -235 0
-106 -83 -194 -265 -281 -564 -271 -1668 -222 -2064 91 -139 110 -150 245 -29
356 121 112 345 201 643 255 55 10 118 17 139 16 l39 -2 116 -228z"/>
<path d="M2348 4201 c-187 -61 -308 -228 -308 -422 0 -81 29 -181 69 -236 l29
-40 -66 -6 c-115 -11 -192 -61 -245 -161 -21 -39 -22 -55 -25 -323 -3 -241 -1
-286 13 -312 31 -61 27 -61 676 -61 654 0 587 -7 645 67 l25 32 -3 278 c-3
264 -4 280 -25 319 -53 100 -130 150 -245 161 l-66 6 29 40 c16 23 39 72 51
110 26 86 22 204 -11 287 -42 110 -141 209 -251 252 -78 30 -215 35 -292 9z
m284 -93 c72 -33 142 -103 176 -176 23 -49 27 -70 27 -152 0 -84 -3 -102 -28
-152 -36 -74 -102 -139 -175 -175 -50 -24 -68 -27 -152 -27 -83 0 -102 3 -151
27 -211 102 -275 365 -134 550 38 49 114 102 178 123 67 22 190 13 259 -18z
m-348 -719 c36 -17 95 -36 131 -42 83 -14 171 0 261 42 56 26 78 31 143 31 97
0 142 -13 188 -53 69 -60 73 -80 73 -368 0 -185 -3 -258 -12 -267 -17 -17
-1159 -17 -1176 0 -9 9 -12 82 -12 267 0 228 2 260 19 296 41 88 109 124 237
125 71 0 91 -4 148 -31z"/>
</g>
</svg>
